<?xml version="1.0" encoding="UTF-8"?>
<svg id="Layer_2" data-name="Layer 2" xmlns="http://www.w3.org/2000/svg" viewBox="0 0 190 35">
  <defs>
    <style>
      .cls-1 {
        fill: none;
      }

      .cls-2 {
        fill: #fff;
      }
    </style>
  </defs>
  <g id="Layer_1-2" data-name="Layer 1">
    <rect class="cls-1" width="190" height="35"/>
    <g>
      <path class="cls-2" d="m59.95,14.25c-1.48,1.48-2.31,3.49-2.31,5.59.01,4.34,3.54,7.86,7.89,7.85,2.08,0,4.07-.83,5.53-2.3,3.06-3.08,3.06-8.05,0-11.13-3.07-3.07-8.04-3.08-11.12,0Zm8.07,8.05c-.65.67-1.55,1.05-2.49,1.03-1.96,0-3.54-1.59-3.54-3.54,0-1.96,1.59-3.54,3.54-3.54h0c1.95.01,3.53,1.59,3.54,3.54.01.95-.37,1.86-1.06,2.51Z"/>
      <polygon class="cls-2" points="117.28 7.3 112.93 7.3 112.93 11.96 110.76 11.96 110.76 16.31 112.93 16.31 112.93 27.68 117.28 27.68 117.28 16.31 119.44 16.31 119.44 11.96 117.28 11.96 117.28 7.3"/>
      <path class="cls-2" d="m52.28,12.22h-4.34v15.51h4.35v-9.41c.17-.25.36-.48.57-.7.83-.85,1.97-1.32,3.16-1.3v-4.01h0c-1.34.06-2.64.52-3.73,1.31v-1.39Z"/>
      <path class="cls-2" d="m79.88,13.15v-5.88h-4.35v19.96h4.35v-.74c2.97,1.95,6.92,1.43,9.28-1.23,1.38-1.47,2.13-3.43,2.09-5.45.04-2.04-.72-4.01-2.12-5.5-2.36-2.64-6.31-3.15-9.25-1.18Zm6,9.14h0c-.65.67-1.55,1.05-2.49,1.03-1.96,0-3.55-1.6-3.54-3.56,0-.93.37-1.83,1.03-2.49.66-.67,1.57-1.05,2.51-1.03,1.95.01,3.53,1.59,3.54,3.54.01.95-.37,1.86-1.06,2.51Z"/>
      <path class="cls-2" d="m95.71,14.25c-1.48,1.48-2.31,3.49-2.31,5.59.01,4.34,3.54,7.85,7.88,7.84,4.34-.01,7.85-3.54,7.84-7.88,0-2.07-.83-4.06-2.3-5.53-3.07-3.07-8.04-3.08-11.12,0Zm8.07,8.05h0c-.65.67-1.55,1.05-2.49,1.03-1.96,0-3.54-1.59-3.54-3.54,0-1.96,1.59-3.54,3.54-3.54h0c1.95.01,3.53,1.59,3.54,3.54,0,.95-.37,1.86-1.06,2.51Z"/>
      <polygon class="cls-2" points="165.47 12.35 165.47 7.31 161.12 7.31 161.12 12.35 158.96 12.35 158.96 16.7 161.12 16.7 161.12 27.69 165.47 27.69 165.47 16.7 167.64 16.7 167.64 12.35 165.47 12.35 165.47 12.35"/>
      <polygon class="cls-2" points="154.62 12.35 154.62 7.31 150.27 7.31 150.27 12.35 148.1 12.35 148.1 16.7 150.27 16.7 150.27 27.69 154.62 27.69 154.62 16.7 156.79 16.7 156.79 12.35 154.62 12.35 154.62 12.35"/>
      <path class="cls-2" d="m141.59,12.43v.74s-.08-.05-.12-.08c-.07-.05-.14-.09-.22-.14-.1-.06-.2-.12-.31-.17-.07-.04-.14-.08-.2-.11-.16-.08-.32-.15-.48-.22-.05-.02-.1-.04-.15-.06-.15-.05-.29-.1-.44-.15-.07-.02-.14-.04-.21-.05-.12-.03-.25-.06-.37-.09l-.23-.04c-.13-.02-.27-.04-.4-.05-.07,0-.14-.02-.2-.02-.2-.01-.4-.02-.6-.03h-.02c-.76,0-1.51.11-2.24.33-1.19.39-2.26,1.1-3.08,2.04-1.38,1.49-2.13,3.46-2.09,5.5-.05,2.01.7,3.97,2.07,5.45,1.34,1.55,3.29,2.43,5.34,2.4.21,0,.42,0,.63-.03.07,0,.13-.01.2-.02.14-.01.28-.03.42-.05.07-.01.15-.02.22-.04.13-.02.26-.05.38-.09.07-.02.14-.03.2-.05.16-.04.31-.1.46-.15l.14-.05c.16-.06.31-.13.47-.2.07-.03.14-.07.2-.11.1-.06.2-.11.31-.17.07-.04.14-.09.21-.14.04-.02.08-.05.12-.07v.74h4.35v-14.82h-4.35Zm-1.02,9.92c-.65.67-1.55,1.05-2.49,1.03-1.96,0-3.54-1.59-3.54-3.54,0-1.96,1.59-3.54,3.54-3.54h0c1.95.01,3.53,1.59,3.54,3.54.01.95-.37,1.86-1.06,2.51Z"/>
      <path class="cls-2" d="m181.46,12.43h-.81v.74s-.08-.05-.12-.08c-.07-.05-.14-.09-.22-.14-.1-.06-.2-.12-.31-.17-.07-.04-.14-.08-.2-.11-.16-.08-.32-.15-.48-.22-.05-.02-.1-.04-.15-.06-.15-.05-.29-.1-.44-.15-.07-.02-.14-.04-.21-.05-.12-.03-.25-.06-.37-.09l-.23-.04c-.13-.02-.27-.04-.4-.05-.07,0-.14-.02-.2-.02-.2-.01-.4-.02-.6-.03h-.02c-.76,0-1.51.11-2.24.33-1.19.39-2.26,1.1-3.08,2.04-1.38,1.49-2.13,3.46-2.09,5.5-.05,2.01.7,3.97,2.07,5.45,1.34,1.55,3.29,2.43,5.34,2.4.21,0,.42,0,.63-.03.07,0,.13-.01.2-.02.14-.01.28-.03.42-.05.07-.01.15-.02.22-.04.13-.02.26-.05.38-.09.07-.02.14-.03.2-.05.16-.04.31-.1.46-.15l.14-.05c.16-.06.31-.13.47-.2.07-.03.14-.07.2-.11.1-.06.2-.11.31-.17.07-.04.14-.09.21-.14.04-.02.08-.05.12-.07v.74h4.35v-14.82h-3.54Zm-1.83,9.92c-.65.67-1.55,1.05-2.49,1.03-1.96,0-3.54-1.59-3.54-3.54,0-1.96,1.59-3.54,3.54-3.54h0c1.95.01,3.53,1.59,3.54,3.54.01.95-.37,1.86-1.06,2.51Z"/>
      <rect class="cls-2" x="28.53" y="7.28" width="6.13" height="13.29"/>
      <circle class="cls-2" cx="31.6" cy="25.16" r="3.07"/>
      <path class="cls-2" d="m26.47,7.28h-6.13v1.02c-1.55-1.02-3.36-1.56-5.22-1.53-2.78-.05-5.44,1.14-7.26,3.24-1.88,2.04-2.91,4.73-2.86,7.51-.06,2.75.95,5.42,2.82,7.44,1.83,2.12,4.5,3.32,7.3,3.28,1.85.04,3.66-.49,5.22-1.5v.99h6.13v-.09h0V7.4h0v-.12Zm-10.75,13.19h0c-1.64,0-2.97-1.32-2.97-2.96s1.33-2.97,2.97-2.97,2.97,1.33,2.97,2.96c0,1.64-1.33,2.97-2.97,2.97Z"/>
    </g>
  </g>
</svg>