<?xml version="1.0" encoding="UTF-8"?>
<svg id="Layer_2" data-name="Layer 2" xmlns="http://www.w3.org/2000/svg" viewBox="0 0 87.5 35">
  <defs>
    <style>
      .cls-1 {
        fill: none;
      }

      .cls-2 {
        fill: #fff;
      }
    </style>
  </defs>
  <g id="Layer_1-2" data-name="Layer 1">
    <path class="cls-1" d="m0,35s3.23,0,7.17,0h73.15c3.94,0,7.17,0,7.17,0s0-3.23,0-7.17V7.17c0-3.94,0-7.17,0-7.17s-3.23,0-7.17,0H7.17C3.23,0,0,0,0,0s0,3.23,0,7.17v20.65c0,3.94,0,7.17,0,7.17Z"/>
    <g>
      <g>
        <polygon class="cls-2" points="35.04 6.24 35.04 7.58 35.04 19.16 35.04 20.5 41.66 20.5 41.66 6.24 35.04 6.24"/>
        <path class="cls-2" d="m38.35,22.18c-1.83,0-3.31,1.48-3.31,3.31s1.48,3.31,3.31,3.31,3.31-1.48,3.31-3.31-1.48-3.31-3.31-3.31Z"/>
        <path class="cls-2" d="m25.62,7.36c-1.75-1.22-3.76-1.83-6.04-1.83-3.22,0-5.92,1.21-8.1,3.62-2.12,2.33-3.18,5.12-3.18,8.37s1.05,6.01,3.14,8.29c2.2,2.44,4.91,3.66,8.14,3.66,2.29,0,4.3-.6,6.04-1.8v1.13h6.62V6.24h-6.62v1.12Zm-5.37,13.45c-1.83,0-3.31-1.48-3.31-3.31s1.48-3.31,3.31-3.31,3.31,1.48,3.31,3.31-1.48,3.31-3.31,3.31Z"/>
      </g>
      <g>
        <path class="cls-2" d="m57.32,9.4c-.71-.69-1.55-1.04-2.52-1.04s-1.8.35-2.51,1.04c-.69.71-1.04,1.55-1.04,2.52s.35,1.8,1.04,2.51c.71.69,1.54,1.04,2.51,1.04s1.81-.35,2.52-1.04c.69-.71,1.04-1.54,1.04-2.51s-.35-1.81-1.04-2.52Zm-1.37,3.64c-.31.31-.69.47-1.13.47s-.82-.16-1.14-.47c-.31-.32-.47-.7-.47-1.14s.16-.82.47-1.14c.32-.31.7-.47,1.14-.47s.81.16,1.13.47c.32.32.48.7.48,1.14s-.16.82-.48,1.14Z"/>
        <polygon class="cls-2" points="79.19 8.36 78.21 8.36 78.21 8.36 78.21 6.25 76.25 6.25 76.25 8.36 76.25 8.36 75.27 8.36 75.27 10.32 76.25 10.32 76.25 15.46 78.21 15.46 78.21 10.32 79.19 10.32 79.19 8.36"/>
        <path class="cls-2" d="m50.51,8.51c-.63.04-1.19.24-1.69.59v-.63h-1.97v7.01h1.97v-4.26c.07-.11.16-.21.26-.31.39-.39.87-.59,1.43-.59v-1.81h0Z"/>
        <path class="cls-2" d="m65.49,9.43c-.65-.72-1.44-1.07-2.39-1.07-.67,0-1.27.18-1.79.54v-2.66h-1.97v9.03h1.97v-.33c.52.35,1.12.53,1.79.53.95,0,1.75-.36,2.4-1.09.63-.68.95-1.51.95-2.46s-.32-1.8-.96-2.49Zm-1.47,3.6c-.31.31-.69.47-1.13.47s-.82-.16-1.14-.47c-.31-.32-.47-.7-.47-1.14s.16-.82.47-1.14c.32-.31.7-.47,1.14-.47s.81.16,1.13.47c.32.32.48.7.48,1.14s-.16.82-.48,1.14Z"/>
        <path class="cls-2" d="m73.49,9.4c-.71-.69-1.55-1.04-2.52-1.04s-1.8.35-2.51,1.04c-.69.71-1.04,1.55-1.04,2.52s.35,1.8,1.04,2.51c.71.69,1.54,1.04,2.51,1.04s1.81-.35,2.52-1.04c.69-.71,1.04-1.54,1.04-2.51s-.35-1.81-1.04-2.52Zm-1.37,3.64c-.31.31-.69.47-1.13.47s-.82-.16-1.14-.47c-.31-.32-.47-.7-.47-1.14s.16-.82.47-1.14c.32-.31.7-.47,1.14-.47s.81.16,1.13.47c.32.32.48.7.48,1.14s-.16.82-.48,1.14Z"/>
      </g>
      <g>
        <polygon class="cls-2" points="62.89 20.03 62.89 17.75 60.93 17.75 60.93 20.03 60.93 20.04 59.95 20.04 59.95 22 60.93 22 60.93 26.97 62.89 26.97 62.89 22 63.87 22 63.87 20.04 62.89 20.04 62.89 20.03"/>
        <polygon class="cls-2" points="57.98 20.03 57.98 17.75 56.02 17.75 56.02 20.03 56.02 20.04 55.04 20.04 55.04 22 56.02 22 56.02 26.97 57.98 26.97 57.98 22 58.97 22 58.97 20.04 57.98 20.04 57.98 20.03"/>
        <path class="cls-2" d="m52.46,20.07h-.37v.33s-.04-.02-.05-.03c-.03-.02-.06-.04-.1-.06-.05-.03-.09-.05-.14-.08-.03-.02-.06-.03-.09-.05-.07-.04-.14-.07-.22-.1-.02,0-.04-.02-.07-.02-.07-.02-.13-.05-.2-.07-.03,0-.06-.02-.1-.03-.06-.01-.11-.03-.17-.04-.03,0-.07-.01-.1-.02-.06,0-.12-.02-.18-.02-.03,0-.06,0-.09,0-.09,0-.18-.01-.27-.01,0,0,0,0-.01,0-.36,0-.7.05-1.01.15-.53.17-.99.48-1.39.92-.63.69-.95,1.52-.95,2.49s.31,1.79.93,2.46c.65.72,1.46,1.09,2.42,1.09h0c.1,0,.19,0,.28-.01.03,0,.06,0,.09,0,.06,0,.13-.01.19-.02.03,0,.07-.01.1-.02.06-.01.12-.02.17-.04.03,0,.06-.01.09-.02.07-.02.14-.04.21-.07.02,0,.04-.02.06-.02.07-.03.14-.06.21-.09.03-.02.06-.03.09-.05.05-.03.09-.05.14-.08.03-.02.06-.04.1-.06.02-.01.04-.02.05-.03v.33h.37s1.6,0,1.6,0h0v-6.7h0s-1.6,0-1.6,0h0Zm-.83,4.49c-.31.31-.69.47-1.13.47s-.82-.16-1.14-.47c-.31-.32-.47-.7-.47-1.14s.16-.82.47-1.14c.32-.31.7-.47,1.14-.47s.81.16,1.13.47c.32.32.48.7.48,1.14s-.16.82-.48,1.14Z"/>
        <path class="cls-2" d="m70.12,20.07h-.37v.33s-.04-.02-.05-.03c-.03-.02-.06-.04-.1-.06-.05-.03-.09-.05-.14-.08-.03-.02-.06-.03-.09-.05-.07-.04-.14-.07-.22-.1-.02,0-.04-.02-.07-.02-.07-.02-.13-.05-.2-.07-.03,0-.06-.02-.1-.03-.06-.01-.11-.03-.17-.04-.03,0-.07-.01-.1-.02-.06,0-.12-.02-.18-.02-.03,0-.06,0-.09,0-.09,0-.18-.01-.27-.01,0,0,0,0-.01,0-.36,0-.7.05-1.01.15-.53.17-.99.48-1.39.92-.63.69-.95,1.52-.95,2.49s.31,1.79.93,2.46c.65.72,1.46,1.09,2.42,1.09h0c.1,0,.19,0,.28-.01.03,0,.06,0,.09,0,.06,0,.13-.01.19-.02.03,0,.07-.01.1-.02.06-.01.12-.02.17-.04.03,0,.06-.01.09-.02.07-.02.14-.04.21-.07.02,0,.04-.02.06-.02.07-.03.14-.06.21-.09.03-.02.06-.03.09-.05.05-.03.09-.05.14-.08.03-.02.06-.04.1-.06.02-.01.04-.02.05-.03v.33h.37s1.6,0,1.6,0h0v-6.7h0s-1.6,0-1.6,0h0Zm-.83,4.49c-.31.31-.69.47-1.13.47s-.82-.16-1.14-.47c-.31-.32-.47-.7-.47-1.14s.16-.82.47-1.14c.32-.31.7-.47,1.14-.47s.81.16,1.13.47c.32.32.48.7.48,1.14s-.16.82-.48,1.14Z"/>
      </g>
    </g>
  </g>
</svg>